<svg width="173" height="53" viewBox="0 0 173 53" fill="none" xmlns="http://www.w3.org/2000/svg">
<path d="M70.4489 23V9.90909H73.9091V12.2188H74.0625C74.3352 11.4517 74.7898 10.8466 75.4261 10.4034C76.0625 9.96023 76.8239 9.73864 77.7102 9.73864C78.608 9.73864 79.3722 9.96307 80.0028 10.4119C80.6335 10.8551 81.054 11.4574 81.2642 12.2188H81.4006C81.6676 11.4688 82.1506 10.8693 82.8494 10.4205C83.554 9.96591 84.3864 9.73864 85.3466 9.73864C86.5682 9.73864 87.5597 10.1278 88.321 10.9062C89.0881 11.679 89.4716 12.7756 89.4716 14.196V23H85.8494V14.9119C85.8494 14.1847 85.6563 13.6392 85.2699 13.2756C84.8835 12.9119 84.4006 12.7301 83.821 12.7301C83.1619 12.7301 82.6477 12.9403 82.2784 13.3608C81.9091 13.7756 81.7244 14.3239 81.7244 15.0057V23H78.2045V14.8352C78.2045 14.1932 78.0199 13.6818 77.6506 13.3011C77.2869 12.9205 76.8068 12.7301 76.2102 12.7301C75.8068 12.7301 75.4432 12.8324 75.1193 13.0369C74.8011 13.2358 74.5483 13.517 74.3608 13.8807C74.1733 14.2386 74.0795 14.6591 74.0795 15.142V23H70.4489ZM92.3395 23V9.90909H95.9702V23H92.3395ZM94.1634 8.22159C93.6236 8.22159 93.1605 8.04261 92.7741 7.68466C92.3935 7.32102 92.2031 6.88636 92.2031 6.38068C92.2031 5.88068 92.3935 5.4517 92.7741 5.09375C93.1605 4.73011 93.6236 4.54829 94.1634 4.54829C94.7031 4.54829 95.1634 4.73011 95.544 5.09375C95.9304 5.4517 96.1236 5.88068 96.1236 6.38068C96.1236 6.88636 95.9304 7.32102 95.544 7.68466C95.1634 8.04261 94.7031 8.22159 94.1634 8.22159ZM109.771 13.642L106.447 13.8466C106.39 13.5625 106.268 13.3068 106.08 13.0795C105.893 12.8466 105.646 12.6619 105.339 12.5256C105.038 12.3835 104.677 12.3125 104.256 12.3125C103.694 12.3125 103.219 12.4318 102.833 12.6705C102.447 12.9034 102.254 13.2159 102.254 13.608C102.254 13.9205 102.379 14.1847 102.629 14.4006C102.879 14.6165 103.308 14.7898 103.915 14.9205L106.285 15.3977C107.558 15.6591 108.506 16.0795 109.131 16.6591C109.756 17.2386 110.069 18 110.069 18.9432C110.069 19.8011 109.816 20.554 109.31 21.2017C108.81 21.8494 108.123 22.3551 107.248 22.7188C106.379 23.0767 105.376 23.2557 104.239 23.2557C102.506 23.2557 101.126 22.8949 100.097 22.1733C99.0746 21.446 98.4751 20.4574 98.299 19.2074L101.87 19.0199C101.978 19.5483 102.239 19.9517 102.654 20.2301C103.069 20.5028 103.6 20.6392 104.248 20.6392C104.884 20.6392 105.396 20.517 105.782 20.2727C106.174 20.0227 106.373 19.7017 106.379 19.3097C106.373 18.9801 106.234 18.7102 105.961 18.5C105.688 18.2841 105.268 18.1193 104.7 18.0057L102.433 17.554C101.154 17.2983 100.202 16.8551 99.5774 16.2244C98.9581 15.5937 98.6484 14.7898 98.6484 13.8125C98.6484 12.9716 98.8757 12.2472 99.3303 11.6392C99.7905 11.0312 100.435 10.5625 101.265 10.233C102.1 9.90341 103.077 9.73864 104.197 9.73864C105.85 9.73864 107.151 10.0881 108.1 10.7869C109.055 11.4858 109.612 12.4375 109.771 13.642ZM119.318 9.90909V12.6364H111.435V9.90909H119.318ZM113.224 6.77273H116.855V18.9773C116.855 19.3125 116.906 19.5739 117.009 19.7614C117.111 19.9432 117.253 20.071 117.435 20.1449C117.622 20.2187 117.838 20.2557 118.082 20.2557C118.253 20.2557 118.423 20.2415 118.594 20.2131C118.764 20.179 118.895 20.1534 118.986 20.1364L119.557 22.8381C119.375 22.8949 119.119 22.9602 118.79 23.0341C118.46 23.1136 118.06 23.1619 117.588 23.179C116.713 23.2131 115.946 23.0966 115.287 22.8295C114.634 22.5625 114.125 22.1477 113.761 21.5852C113.398 21.0227 113.219 20.3125 113.224 19.4545V6.77273ZM123.925 27.9091C123.464 27.9091 123.033 27.8722 122.629 27.7983C122.232 27.7301 121.902 27.642 121.641 27.5341L122.459 24.8239C122.885 24.9545 123.268 25.0256 123.609 25.0369C123.956 25.0483 124.254 24.9688 124.504 24.7983C124.76 24.6278 124.967 24.3381 125.126 23.929L125.339 23.375L120.643 9.90909H124.462L127.172 19.5227H127.308L130.044 9.90909H133.888L128.8 24.4148C128.555 25.1193 128.223 25.733 127.803 26.2557C127.388 26.7841 126.862 27.1903 126.226 27.4744C125.589 27.7642 124.822 27.9091 123.925 27.9091Z" fill="white"/>
<path d="M70.4489 47V33.9091H73.9688V36.1932H74.1051C74.3438 35.3807 74.7443 34.767 75.3068 34.3523C75.8693 33.9318 76.517 33.7216 77.25 33.7216C77.4318 33.7216 77.6278 33.733 77.8381 33.7557C78.0483 33.7784 78.233 33.8097 78.392 33.8494V37.071C78.2216 37.0199 77.9858 36.9744 77.6847 36.9347C77.3835 36.8949 77.108 36.875 76.858 36.875C76.3239 36.875 75.8466 36.9915 75.4261 37.2244C75.0114 37.4517 74.6818 37.7699 74.4375 38.179C74.1989 38.5881 74.0795 39.0597 74.0795 39.5938V47H70.4489ZM85.6257 47.2557C84.2791 47.2557 83.12 46.983 82.1484 46.4375C81.1825 45.8864 80.4382 45.108 79.9155 44.1023C79.3928 43.0909 79.1314 41.8949 79.1314 40.5142C79.1314 39.1676 79.3928 37.9858 79.9155 36.9688C80.4382 35.9517 81.174 35.1591 82.1229 34.5909C83.0774 34.0227 84.1967 33.7386 85.4808 33.7386C86.3445 33.7386 87.1484 33.8778 87.8928 34.1562C88.6428 34.429 89.2962 34.8409 89.853 35.392C90.4155 35.9432 90.853 36.6364 91.1655 37.4716C91.478 38.3011 91.6342 39.2727 91.6342 40.3864V41.3835H80.5803V39.1335H88.2166C88.2166 38.6108 88.103 38.1477 87.8757 37.7443C87.6484 37.3409 87.3331 37.0256 86.9297 36.7983C86.532 36.5653 86.0689 36.4489 85.5405 36.4489C84.9893 36.4489 84.5007 36.5767 84.0746 36.8324C83.6541 37.0824 83.3246 37.4205 83.0859 37.8466C82.8473 38.267 82.7251 38.7358 82.7195 39.2528V41.392C82.7195 42.0398 82.8388 42.5994 83.0774 43.071C83.3217 43.5426 83.6655 43.9062 84.1087 44.1619C84.5518 44.4176 85.0774 44.5455 85.6854 44.5455C86.0888 44.5455 86.4581 44.4886 86.7933 44.375C87.1286 44.2614 87.4155 44.0909 87.6541 43.8636C87.8928 43.6364 88.0746 43.358 88.1996 43.0284L91.5575 43.25C91.3871 44.0568 91.0376 44.7614 90.5092 45.3636C89.9865 45.9602 89.3104 46.4261 88.4808 46.7614C87.657 47.0909 86.7053 47.2557 85.6257 47.2557ZM104.896 37.642L101.572 37.8466C101.515 37.5625 101.393 37.3068 101.205 37.0795C101.018 36.8466 100.771 36.6619 100.464 36.5256C100.163 36.3835 99.8018 36.3125 99.3814 36.3125C98.8189 36.3125 98.3445 36.4318 97.9581 36.6705C97.5717 36.9034 97.3786 37.2159 97.3786 37.608C97.3786 37.9205 97.5036 38.1847 97.7536 38.4006C98.0036 38.6165 98.4325 38.7898 99.0405 38.9205L101.41 39.3977C102.683 39.6591 103.631 40.0795 104.256 40.6591C104.881 41.2386 105.194 42 105.194 42.9432C105.194 43.8011 104.941 44.554 104.435 45.2017C103.935 45.8494 103.248 46.3551 102.373 46.7188C101.504 47.0767 100.501 47.2557 99.3643 47.2557C97.6314 47.2557 96.2507 46.8949 95.2223 46.1733C94.1996 45.446 93.6001 44.4574 93.424 43.2074L96.995 43.0199C97.103 43.5483 97.3643 43.9517 97.7791 44.2301C98.1939 44.5028 98.7251 44.6392 99.3729 44.6392C100.009 44.6392 100.521 44.517 100.907 44.2727C101.299 44.0227 101.498 43.7017 101.504 43.3097C101.498 42.9801 101.359 42.7102 101.086 42.5C100.813 42.2841 100.393 42.1193 99.8246 42.0057L97.5575 41.554C96.2791 41.2983 95.3274 40.8551 94.7024 40.2244C94.0831 39.5937 93.7734 38.7898 93.7734 37.8125C93.7734 36.9716 94.0007 36.2472 94.4553 35.6392C94.9155 35.0312 95.5604 34.5625 96.3899 34.233C97.2251 33.9034 98.2024 33.7386 99.3217 33.7386C100.975 33.7386 102.276 34.0881 103.225 34.7869C104.18 35.4858 104.737 36.4375 104.896 37.642ZM113.446 47.2557C112.099 47.2557 110.94 46.983 109.969 46.4375C109.003 45.8864 108.259 45.108 107.736 44.1023C107.213 43.0909 106.952 41.8949 106.952 40.5142C106.952 39.1676 107.213 37.9858 107.736 36.9688C108.259 35.9517 108.994 35.1591 109.943 34.5909C110.898 34.0227 112.017 33.7386 113.301 33.7386C114.165 33.7386 114.969 33.8778 115.713 34.1562C116.463 34.429 117.116 34.8409 117.673 35.392C118.236 35.9432 118.673 36.6364 118.986 37.4716C119.298 38.3011 119.455 39.2727 119.455 40.3864V41.3835H108.401V39.1335H116.037C116.037 38.6108 115.923 38.1477 115.696 37.7443C115.469 37.3409 115.153 37.0256 114.75 36.7983C114.352 36.5653 113.889 36.4489 113.361 36.4489C112.81 36.4489 112.321 36.5767 111.895 36.8324C111.474 37.0824 111.145 37.4205 110.906 37.8466C110.668 38.267 110.545 38.7358 110.54 39.2528V41.392C110.54 42.0398 110.659 42.5994 110.898 43.071C111.142 43.5426 111.486 43.9062 111.929 44.1619C112.372 44.4176 112.898 44.5455 113.506 44.5455C113.909 44.5455 114.278 44.4886 114.614 44.375C114.949 44.2614 115.236 44.0909 115.474 43.8636C115.713 43.6364 115.895 43.358 116.02 43.0284L119.378 43.25C119.207 44.0568 118.858 44.7614 118.33 45.3636C117.807 45.9602 117.131 46.4261 116.301 46.7614C115.477 47.0909 114.526 47.2557 113.446 47.2557ZM125.557 47.2472C124.722 47.2472 123.977 47.1023 123.324 46.8125C122.67 46.517 122.153 46.0824 121.773 45.5085C121.398 44.929 121.21 44.2074 121.21 43.3438C121.21 42.6165 121.344 42.0057 121.611 41.5114C121.878 41.017 122.241 40.6193 122.702 40.3182C123.162 40.017 123.685 39.7898 124.27 39.6364C124.861 39.483 125.48 39.375 126.128 39.3125C126.889 39.233 127.503 39.1591 127.969 39.0909C128.435 39.017 128.773 38.9091 128.983 38.767C129.193 38.625 129.298 38.4148 129.298 38.1364V38.0852C129.298 37.5455 129.128 37.1278 128.787 36.8324C128.452 36.5369 127.974 36.3892 127.355 36.3892C126.702 36.3892 126.182 36.5341 125.795 36.8239C125.409 37.108 125.153 37.4659 125.028 37.8977L121.67 37.625C121.841 36.8295 122.176 36.142 122.676 35.5625C123.176 34.9773 123.821 34.5284 124.611 34.2159C125.406 33.8977 126.327 33.7386 127.372 33.7386C128.099 33.7386 128.795 33.8239 129.46 33.9943C130.131 34.1648 130.724 34.429 131.241 34.7869C131.764 35.1449 132.176 35.6051 132.477 36.1676C132.778 36.7244 132.929 37.392 132.929 38.1705V47H129.486V45.1847H129.384C129.173 45.5938 128.892 45.9545 128.54 46.267C128.188 46.5739 127.764 46.8153 127.27 46.9915C126.776 47.1619 126.205 47.2472 125.557 47.2472ZM126.597 44.7415C127.131 44.7415 127.602 44.6364 128.011 44.4261C128.42 44.2102 128.741 43.9205 128.974 43.5568C129.207 43.1932 129.324 42.7812 129.324 42.321V40.9318C129.21 41.0057 129.054 41.0739 128.855 41.1364C128.662 41.1932 128.443 41.2472 128.199 41.2983C127.955 41.3437 127.71 41.3864 127.466 41.4261C127.222 41.4602 127 41.4915 126.801 41.5199C126.375 41.5824 126.003 41.6818 125.685 41.8182C125.366 41.9545 125.119 42.1392 124.943 42.3722C124.767 42.5994 124.679 42.8835 124.679 43.2244C124.679 43.7188 124.858 44.0966 125.216 44.358C125.58 44.6136 126.04 44.7415 126.597 44.7415ZM135.746 47V33.9091H139.266V36.1932H139.402C139.641 35.3807 140.041 34.767 140.604 34.3523C141.166 33.9318 141.814 33.7216 142.547 33.7216C142.729 33.7216 142.925 33.733 143.135 33.7557C143.345 33.7784 143.53 33.8097 143.689 33.8494V37.071C143.518 37.0199 143.283 36.9744 142.982 36.9347C142.68 36.8949 142.405 36.875 142.155 36.875C141.621 36.875 141.143 36.9915 140.723 37.2244C140.308 37.4517 139.979 37.7699 139.734 38.179C139.496 38.5881 139.376 39.0597 139.376 39.5938V47H135.746ZM150.871 47.2557C149.531 47.2557 148.377 46.9716 147.411 46.4034C146.451 45.8295 145.712 45.0341 145.195 44.017C144.684 43 144.428 41.8295 144.428 40.5057C144.428 39.1648 144.687 37.9886 145.204 36.9773C145.727 35.9602 146.468 35.1676 147.428 34.5994C148.388 34.0256 149.531 33.7386 150.854 33.7386C151.996 33.7386 152.996 33.946 153.854 34.3608C154.712 34.7756 155.391 35.358 155.891 36.108C156.391 36.858 156.667 37.7386 156.718 38.75H153.292C153.195 38.0966 152.94 37.571 152.525 37.1733C152.116 36.7699 151.579 36.5682 150.914 36.5682C150.352 36.5682 149.86 36.7216 149.44 37.0284C149.025 37.3295 148.701 37.7699 148.468 38.3494C148.235 38.929 148.119 39.6307 148.119 40.4545C148.119 41.2898 148.232 42 148.46 42.5852C148.692 43.1705 149.019 43.6165 149.44 43.9233C149.86 44.2301 150.352 44.3835 150.914 44.3835C151.329 44.3835 151.701 44.2983 152.031 44.1278C152.366 43.9574 152.641 43.7102 152.857 43.3864C153.079 43.0568 153.224 42.6619 153.292 42.2017H156.718C156.661 43.2017 156.388 44.0824 155.9 44.8438C155.417 45.5994 154.749 46.1903 153.897 46.6165C153.045 47.0426 152.036 47.2557 150.871 47.2557ZM162.673 39.4318V47H159.043V29.5455H162.571V36.2188H162.724C163.02 35.446 163.497 34.8409 164.156 34.4034C164.815 33.9602 165.642 33.7386 166.636 33.7386C167.545 33.7386 168.338 33.9375 169.014 34.3352C169.696 34.7273 170.224 35.2926 170.599 36.0312C170.98 36.7642 171.168 37.642 171.162 38.6648V47H167.531V39.3125C167.537 38.5057 167.332 37.8778 166.918 37.429C166.509 36.9801 165.935 36.7557 165.196 36.7557C164.702 36.7557 164.264 36.8608 163.884 37.071C163.509 37.2812 163.213 37.5881 162.997 37.9915C162.787 38.3892 162.679 38.8693 162.673 39.4318Z" fill="white"/>
<circle cx="4" cy="47" r="4" fill="white"/>
<circle cx="16" cy="47" r="4" fill="white"/>
<circle cx="28" cy="47" r="4" fill="white"/>
<circle cx="40" cy="47" r="4" fill="white"/>
<circle cx="16" cy="35" r="4" fill="white"/>
<circle cx="28" cy="35" r="4" fill="white"/>
<circle cx="40" cy="35" r="4" fill="white"/>
<circle cx="52" cy="35" r="4" fill="white"/>
<circle cx="4" cy="23" r="4" fill="white"/>
<circle cx="16" cy="23" r="4" fill="white"/>
<circle cx="28" cy="23" r="4" fill="white"/>
<circle cx="40" cy="23" r="4" fill="white"/>
<circle cx="16" cy="11" r="4" fill="white"/>
<circle cx="28" cy="11" r="4" fill="white"/>
<circle cx="40" cy="11" r="4" fill="white"/>
<circle cx="52" cy="11" r="4" fill="white"/>
</svg>
