<svg width="169" height="53" viewBox="0 0 169 53" fill="none" xmlns="http://www.w3.org/2000/svg">
<circle cx="4" cy="45" r="4" fill="black"/>
<circle cx="16" cy="45" r="4" fill="black"/>
<circle cx="28" cy="45" r="4" fill="black"/>
<circle cx="40" cy="45" r="4" fill="black"/>
<circle cx="16" cy="33" r="4" fill="black"/>
<circle cx="28" cy="33" r="4" fill="black"/>
<circle cx="40" cy="33" r="4" fill="black"/>
<circle cx="52" cy="33" r="4" fill="black"/>
<circle cx="4" cy="21" r="4" fill="black"/>
<circle cx="16" cy="21" r="4" fill="black"/>
<circle cx="28" cy="21" r="4" fill="black"/>
<circle cx="40" cy="21" r="4" fill="black"/>
<circle cx="16" cy="9" r="4" fill="black"/>
<circle cx="28" cy="9" r="4" fill="black"/>
<circle cx="40" cy="9" r="4" fill="black"/>
<circle cx="52" cy="9" r="4" fill="black"/>
<path d="M66.4489 23V9.90909H69.9091V12.2188H70.0625C70.3352 11.4517 70.7898 10.8466 71.4261 10.4034C72.0625 9.96023 72.8239 9.73864 73.7102 9.73864C74.608 9.73864 75.3722 9.96307 76.0028 10.4119C76.6335 10.8551 77.054 11.4574 77.2642 12.2188H77.4006C77.6676 11.4688 78.1506 10.8693 78.8494 10.4205C79.554 9.96591 80.3864 9.73864 81.3466 9.73864C82.5682 9.73864 83.5597 10.1278 84.321 10.9062C85.0881 11.679 85.4716 12.7756 85.4716 14.196V23H81.8494V14.9119C81.8494 14.1847 81.6563 13.6392 81.2699 13.2756C80.8835 12.9119 80.4006 12.7301 79.821 12.7301C79.1619 12.7301 78.6477 12.9403 78.2784 13.3608C77.9091 13.7756 77.7244 14.3239 77.7244 15.0057V23H74.2045V14.8352C74.2045 14.1932 74.0199 13.6818 73.6506 13.3011C73.2869 12.9205 72.8068 12.7301 72.2102 12.7301C71.8068 12.7301 71.4432 12.8324 71.1193 13.0369C70.8011 13.2358 70.5483 13.517 70.3608 13.8807C70.1733 14.2386 70.0795 14.6591 70.0795 15.142V23H66.4489ZM88.3395 23V9.90909H91.9702V23H88.3395ZM90.1634 8.22159C89.6236 8.22159 89.1605 8.04261 88.7741 7.68466C88.3935 7.32102 88.2031 6.88636 88.2031 6.38068C88.2031 5.88068 88.3935 5.4517 88.7741 5.09375C89.1605 4.73011 89.6236 4.54829 90.1634 4.54829C90.7031 4.54829 91.1634 4.73011 91.544 5.09375C91.9304 5.4517 92.1236 5.88068 92.1236 6.38068C92.1236 6.88636 91.9304 7.32102 91.544 7.68466C91.1634 8.04261 90.7031 8.22159 90.1634 8.22159ZM105.771 13.642L102.447 13.8466C102.39 13.5625 102.268 13.3068 102.08 13.0795C101.893 12.8466 101.646 12.6619 101.339 12.5256C101.038 12.3835 100.677 12.3125 100.256 12.3125C99.6939 12.3125 99.2195 12.4318 98.8331 12.6705C98.4467 12.9034 98.2536 13.2159 98.2536 13.608C98.2536 13.9205 98.3786 14.1847 98.6286 14.4006C98.8786 14.6165 99.3075 14.7898 99.9155 14.9205L102.285 15.3977C103.558 15.6591 104.506 16.0795 105.131 16.6591C105.756 17.2386 106.069 18 106.069 18.9432C106.069 19.8011 105.816 20.554 105.31 21.2017C104.81 21.8494 104.123 22.3551 103.248 22.7188C102.379 23.0767 101.376 23.2557 100.239 23.2557C98.5064 23.2557 97.1257 22.8949 96.0973 22.1733C95.0746 21.446 94.4751 20.4574 94.299 19.2074L97.87 19.0199C97.978 19.5483 98.2393 19.9517 98.6541 20.2301C99.0689 20.5028 99.6001 20.6392 100.248 20.6392C100.884 20.6392 101.396 20.517 101.782 20.2727C102.174 20.0227 102.373 19.7017 102.379 19.3097C102.373 18.9801 102.234 18.7102 101.961 18.5C101.688 18.2841 101.268 18.1193 100.7 18.0057L98.4325 17.554C97.1541 17.2983 96.2024 16.8551 95.5774 16.2244C94.9581 15.5937 94.6484 14.7898 94.6484 13.8125C94.6484 12.9716 94.8757 12.2472 95.3303 11.6392C95.7905 11.0312 96.4354 10.5625 97.2649 10.233C98.1001 9.90341 99.0774 9.73864 100.197 9.73864C101.85 9.73864 103.151 10.0881 104.1 10.7869C105.055 11.4858 105.612 12.4375 105.771 13.642ZM115.318 9.90909V12.6364H107.435V9.90909H115.318ZM109.224 6.77273H112.855V18.9773C112.855 19.3125 112.906 19.5739 113.009 19.7614C113.111 19.9432 113.253 20.071 113.435 20.1449C113.622 20.2187 113.838 20.2557 114.082 20.2557C114.253 20.2557 114.423 20.2415 114.594 20.2131C114.764 20.179 114.895 20.1534 114.986 20.1364L115.557 22.8381C115.375 22.8949 115.119 22.9602 114.79 23.0341C114.46 23.1136 114.06 23.1619 113.588 23.179C112.713 23.2131 111.946 23.0966 111.287 22.8295C110.634 22.5625 110.125 22.1477 109.761 21.5852C109.398 21.0227 109.219 20.3125 109.224 19.4545V6.77273ZM119.925 27.9091C119.464 27.9091 119.033 27.8722 118.629 27.7983C118.232 27.7301 117.902 27.642 117.641 27.5341L118.459 24.8239C118.885 24.9545 119.268 25.0256 119.609 25.0369C119.956 25.0483 120.254 24.9688 120.504 24.7983C120.76 24.6278 120.967 24.3381 121.126 23.929L121.339 23.375L116.643 9.90909H120.462L123.172 19.5227H123.308L126.044 9.90909H129.888L124.8 24.4148C124.555 25.1193 124.223 25.733 123.803 26.2557C123.388 26.7841 122.862 27.1903 122.226 27.4744C121.589 27.7642 120.822 27.9091 119.925 27.9091Z" fill="black"/>
<path d="M66.4489 47V33.9091H69.9688V36.1932H70.1051C70.3438 35.3807 70.7443 34.767 71.3068 34.3523C71.8693 33.9318 72.517 33.7216 73.25 33.7216C73.4318 33.7216 73.6278 33.733 73.8381 33.7557C74.0483 33.7784 74.233 33.8097 74.392 33.8494V37.071C74.2216 37.0199 73.9858 36.9744 73.6847 36.9347C73.3835 36.8949 73.108 36.875 72.858 36.875C72.3239 36.875 71.8466 36.9915 71.4261 37.2244C71.0114 37.4517 70.6818 37.7699 70.4375 38.179C70.1989 38.5881 70.0795 39.0597 70.0795 39.5938V47H66.4489ZM81.6257 47.2557C80.2791 47.2557 79.12 46.983 78.1484 46.4375C77.1825 45.8864 76.4382 45.108 75.9155 44.1023C75.3928 43.0909 75.1314 41.8949 75.1314 40.5142C75.1314 39.1676 75.3928 37.9858 75.9155 36.9688C76.4382 35.9517 77.174 35.1591 78.1229 34.5909C79.0774 34.0227 80.1967 33.7386 81.4808 33.7386C82.3445 33.7386 83.1484 33.8778 83.8928 34.1562C84.6428 34.429 85.2962 34.8409 85.853 35.392C86.4155 35.9432 86.853 36.6364 87.1655 37.4716C87.478 38.3011 87.6342 39.2727 87.6342 40.3864V41.3835H76.5803V39.1335H84.2166C84.2166 38.6108 84.103 38.1477 83.8757 37.7443C83.6484 37.3409 83.3331 37.0256 82.9297 36.7983C82.532 36.5653 82.0689 36.4489 81.5405 36.4489C80.9893 36.4489 80.5007 36.5767 80.0746 36.8324C79.6541 37.0824 79.3246 37.4205 79.0859 37.8466C78.8473 38.267 78.7251 38.7358 78.7195 39.2528V41.392C78.7195 42.0398 78.8388 42.5994 79.0774 43.071C79.3217 43.5426 79.6655 43.9062 80.1087 44.1619C80.5518 44.4176 81.0774 44.5455 81.6854 44.5455C82.0888 44.5455 82.4581 44.4886 82.7933 44.375C83.1286 44.2614 83.4155 44.0909 83.6541 43.8636C83.8928 43.6364 84.0746 43.358 84.1996 43.0284L87.5575 43.25C87.3871 44.0568 87.0376 44.7614 86.5092 45.3636C85.9865 45.9602 85.3104 46.4261 84.4808 46.7614C83.657 47.0909 82.7053 47.2557 81.6257 47.2557ZM100.896 37.642L97.5717 37.8466C97.5149 37.5625 97.3928 37.3068 97.2053 37.0795C97.0178 36.8466 96.7706 36.6619 96.4638 36.5256C96.1626 36.3835 95.8018 36.3125 95.3814 36.3125C94.8189 36.3125 94.3445 36.4318 93.9581 36.6705C93.5717 36.9034 93.3786 37.2159 93.3786 37.608C93.3786 37.9205 93.5036 38.1847 93.7536 38.4006C94.0036 38.6165 94.4325 38.7898 95.0405 38.9205L97.4098 39.3977C98.6825 39.6591 99.6314 40.0795 100.256 40.6591C100.881 41.2386 101.194 42 101.194 42.9432C101.194 43.8011 100.941 44.554 100.435 45.2017C99.9354 45.8494 99.2479 46.3551 98.3729 46.7188C97.5036 47.0767 96.5007 47.2557 95.3643 47.2557C93.6314 47.2557 92.2507 46.8949 91.2223 46.1733C90.1996 45.446 89.6001 44.4574 89.424 43.2074L92.995 43.0199C93.103 43.5483 93.3643 43.9517 93.7791 44.2301C94.1939 44.5028 94.7251 44.6392 95.3729 44.6392C96.0092 44.6392 96.5206 44.517 96.907 44.2727C97.299 44.0227 97.4979 43.7017 97.5036 43.3097C97.4979 42.9801 97.3587 42.7102 97.0859 42.5C96.8132 42.2841 96.3928 42.1193 95.8246 42.0057L93.5575 41.554C92.2791 41.2983 91.3274 40.8551 90.7024 40.2244C90.0831 39.5937 89.7734 38.7898 89.7734 37.8125C89.7734 36.9716 90.0007 36.2472 90.4553 35.6392C90.9155 35.0312 91.5604 34.5625 92.3899 34.233C93.2251 33.9034 94.2024 33.7386 95.3217 33.7386C96.9751 33.7386 98.2763 34.0881 99.2251 34.7869C100.18 35.4858 100.737 36.4375 100.896 37.642ZM109.446 47.2557C108.099 47.2557 106.94 46.983 105.969 46.4375C105.003 45.8864 104.259 45.108 103.736 44.1023C103.213 43.0909 102.952 41.8949 102.952 40.5142C102.952 39.1676 103.213 37.9858 103.736 36.9688C104.259 35.9517 104.994 35.1591 105.943 34.5909C106.898 34.0227 108.017 33.7386 109.301 33.7386C110.165 33.7386 110.969 33.8778 111.713 34.1562C112.463 34.429 113.116 34.8409 113.673 35.392C114.236 35.9432 114.673 36.6364 114.986 37.4716C115.298 38.3011 115.455 39.2727 115.455 40.3864V41.3835H104.401V39.1335H112.037C112.037 38.6108 111.923 38.1477 111.696 37.7443C111.469 37.3409 111.153 37.0256 110.75 36.7983C110.352 36.5653 109.889 36.4489 109.361 36.4489C108.81 36.4489 108.321 36.5767 107.895 36.8324C107.474 37.0824 107.145 37.4205 106.906 37.8466C106.668 38.267 106.545 38.7358 106.54 39.2528V41.392C106.54 42.0398 106.659 42.5994 106.898 43.071C107.142 43.5426 107.486 43.9062 107.929 44.1619C108.372 44.4176 108.898 44.5455 109.506 44.5455C109.909 44.5455 110.278 44.4886 110.614 44.375C110.949 44.2614 111.236 44.0909 111.474 43.8636C111.713 43.6364 111.895 43.358 112.02 43.0284L115.378 43.25C115.207 44.0568 114.858 44.7614 114.33 45.3636C113.807 45.9602 113.131 46.4261 112.301 46.7614C111.477 47.0909 110.526 47.2557 109.446 47.2557ZM121.557 47.2472C120.722 47.2472 119.977 47.1023 119.324 46.8125C118.67 46.517 118.153 46.0824 117.773 45.5085C117.398 44.929 117.21 44.2074 117.21 43.3438C117.21 42.6165 117.344 42.0057 117.611 41.5114C117.878 41.017 118.241 40.6193 118.702 40.3182C119.162 40.017 119.685 39.7898 120.27 39.6364C120.861 39.483 121.48 39.375 122.128 39.3125C122.889 39.233 123.503 39.1591 123.969 39.0909C124.435 39.017 124.773 38.9091 124.983 38.767C125.193 38.625 125.298 38.4148 125.298 38.1364V38.0852C125.298 37.5455 125.128 37.1278 124.787 36.8324C124.452 36.5369 123.974 36.3892 123.355 36.3892C122.702 36.3892 122.182 36.5341 121.795 36.8239C121.409 37.108 121.153 37.4659 121.028 37.8977L117.67 37.625C117.841 36.8295 118.176 36.142 118.676 35.5625C119.176 34.9773 119.821 34.5284 120.611 34.2159C121.406 33.8977 122.327 33.7386 123.372 33.7386C124.099 33.7386 124.795 33.8239 125.46 33.9943C126.131 34.1648 126.724 34.429 127.241 34.7869C127.764 35.1449 128.176 35.6051 128.477 36.1676C128.778 36.7244 128.929 37.392 128.929 38.1705V47H125.486V45.1847H125.384C125.173 45.5938 124.892 45.9545 124.54 46.267C124.188 46.5739 123.764 46.8153 123.27 46.9915C122.776 47.1619 122.205 47.2472 121.557 47.2472ZM122.597 44.7415C123.131 44.7415 123.602 44.6364 124.011 44.4261C124.42 44.2102 124.741 43.9205 124.974 43.5568C125.207 43.1932 125.324 42.7812 125.324 42.321V40.9318C125.21 41.0057 125.054 41.0739 124.855 41.1364C124.662 41.1932 124.443 41.2472 124.199 41.2983C123.955 41.3437 123.71 41.3864 123.466 41.4261C123.222 41.4602 123 41.4915 122.801 41.5199C122.375 41.5824 122.003 41.6818 121.685 41.8182C121.366 41.9545 121.119 42.1392 120.943 42.3722C120.767 42.5994 120.679 42.8835 120.679 43.2244C120.679 43.7188 120.858 44.0966 121.216 44.358C121.58 44.6136 122.04 44.7415 122.597 44.7415ZM131.746 47V33.9091H135.266V36.1932H135.402C135.641 35.3807 136.041 34.767 136.604 34.3523C137.166 33.9318 137.814 33.7216 138.547 33.7216C138.729 33.7216 138.925 33.733 139.135 33.7557C139.345 33.7784 139.53 33.8097 139.689 33.8494V37.071C139.518 37.0199 139.283 36.9744 138.982 36.9347C138.68 36.8949 138.405 36.875 138.155 36.875C137.621 36.875 137.143 36.9915 136.723 37.2244C136.308 37.4517 135.979 37.7699 135.734 38.179C135.496 38.5881 135.376 39.0597 135.376 39.5938V47H131.746ZM146.871 47.2557C145.531 47.2557 144.377 46.9716 143.411 46.4034C142.451 45.8295 141.712 45.0341 141.195 44.017C140.684 43 140.428 41.8295 140.428 40.5057C140.428 39.1648 140.687 37.9886 141.204 36.9773C141.727 35.9602 142.468 35.1676 143.428 34.5994C144.388 34.0256 145.531 33.7386 146.854 33.7386C147.996 33.7386 148.996 33.946 149.854 34.3608C150.712 34.7756 151.391 35.358 151.891 36.108C152.391 36.858 152.667 37.7386 152.718 38.75H149.292C149.195 38.0966 148.94 37.571 148.525 37.1733C148.116 36.7699 147.579 36.5682 146.914 36.5682C146.352 36.5682 145.86 36.7216 145.44 37.0284C145.025 37.3295 144.701 37.7699 144.468 38.3494C144.235 38.929 144.119 39.6307 144.119 40.4545C144.119 41.2898 144.232 42 144.46 42.5852C144.692 43.1705 145.019 43.6165 145.44 43.9233C145.86 44.2301 146.352 44.3835 146.914 44.3835C147.329 44.3835 147.701 44.2983 148.031 44.1278C148.366 43.9574 148.641 43.7102 148.857 43.3864C149.079 43.0568 149.224 42.6619 149.292 42.2017H152.718C152.661 43.2017 152.388 44.0824 151.9 44.8438C151.417 45.5994 150.749 46.1903 149.897 46.6165C149.045 47.0426 148.036 47.2557 146.871 47.2557ZM158.673 39.4318V47H155.043V29.5455H158.571V36.2188H158.724C159.02 35.446 159.497 34.8409 160.156 34.4034C160.815 33.9602 161.642 33.7386 162.636 33.7386C163.545 33.7386 164.338 33.9375 165.014 34.3352C165.696 34.7273 166.224 35.2926 166.599 36.0312C166.98 36.7642 167.168 37.642 167.162 38.6648V47H163.531V39.3125C163.537 38.5057 163.332 37.8778 162.918 37.429C162.509 36.9801 161.935 36.7557 161.196 36.7557C160.702 36.7557 160.264 36.8608 159.884 37.071C159.509 37.2812 159.213 37.5881 158.997 37.9915C158.787 38.3892 158.679 38.8693 158.673 39.4318Z" fill="black"/>
</svg>
